<mxfile host="app.diagrams.net" agent="Mozilla/5.0 (Windows NT 10.0; Win64; x64) AppleWebKit/537.36 (KHTML, like Gecko) Chrome/138.0.0.0 Safari/537.36 Edg/138.0.0.0" version="28.0.7">
  <diagram name="第 1 页" id="YsF2QC7m3yt9G6D5bQVV">
    <mxGraphModel dx="2245" dy="794" grid="1" gridSize="10" guides="1" tooltips="1" connect="1" arrows="1" fold="1" page="1" pageScale="1" pageWidth="827" pageHeight="1169" math="1" shadow="0">
      <root>
        <mxCell id="0" />
        <mxCell id="1" parent="0" />
        <mxCell id="-wQCwCp9igqH3vH6jsLb-1" value="" style="shape=table;startSize=0;container=1;collapsible=0;childLayout=tableLayout;fontFamily=Times New Roman;fontSize=12;strokeWidth=2;" parent="1" vertex="1">
          <mxGeometry x="-40" y="120" width="2990" height="490" as="geometry" />
        </mxCell>
        <mxCell id="-wQCwCp9igqH3vH6jsLb-2" value="" style="shape=tableRow;horizontal=0;startSize=0;swimlaneHead=0;swimlaneBody=0;strokeColor=inherit;top=0;left=0;bottom=0;right=0;collapsible=0;dropTarget=0;fillColor=none;points=[[0,0.5],[1,0.5]];portConstraint=eastwest;fontFamily=Times New Roman;fontSize=12;" parent="-wQCwCp9igqH3vH6jsLb-1" vertex="1">
          <mxGeometry width="2990" height="60" as="geometry" />
        </mxCell>
        <mxCell id="-wQCwCp9igqH3vH6jsLb-3" value="&lt;font style=&quot;font-size: 18px;&quot;&gt;&lt;b&gt;Scheme&lt;/b&gt;&lt;/font&gt;" style="shape=partialRectangle;html=1;whiteSpace=wrap;connectable=0;strokeColor=#6c8ebf;overflow=hidden;fillColor=#dae8fc;top=0;left=0;bottom=0;right=0;pointerEvents=1;fontFamily=Times New Roman;fontSize=12;gradientColor=#7ea6e0;shadow=1;" parent="-wQCwCp9igqH3vH6jsLb-2" vertex="1">
          <mxGeometry width="123" height="60" as="geometry">
            <mxRectangle width="123" height="60" as="alternateBounds" />
          </mxGeometry>
        </mxCell>
        <mxCell id="-wQCwCp9igqH3vH6jsLb-4" value="&lt;font style=&quot;font-size: 18px;&quot;&gt;[26]&lt;/font&gt;" style="shape=partialRectangle;html=1;whiteSpace=wrap;connectable=0;strokeColor=inherit;overflow=hidden;fillColor=none;top=0;left=0;bottom=0;right=0;pointerEvents=1;fontFamily=Times New Roman;fontSize=12;" parent="-wQCwCp9igqH3vH6jsLb-2" vertex="1">
          <mxGeometry x="123" width="647" height="60" as="geometry">
            <mxRectangle width="647" height="60" as="alternateBounds" />
          </mxGeometry>
        </mxCell>
        <mxCell id="-wQCwCp9igqH3vH6jsLb-5" value="&lt;font style=&quot;font-size: 18px;&quot;&gt;[52]&lt;/font&gt;" style="shape=partialRectangle;html=1;whiteSpace=wrap;connectable=0;strokeColor=inherit;overflow=hidden;fillColor=none;top=0;left=0;bottom=0;right=0;pointerEvents=1;fontFamily=Times New Roman;fontSize=12;" parent="-wQCwCp9igqH3vH6jsLb-2" vertex="1">
          <mxGeometry x="770" width="310" height="60" as="geometry">
            <mxRectangle width="310" height="60" as="alternateBounds" />
          </mxGeometry>
        </mxCell>
        <mxCell id="-wQCwCp9igqH3vH6jsLb-6" value="&lt;font style=&quot;font-size: 18px;&quot;&gt;[54]&lt;/font&gt;" style="shape=partialRectangle;html=1;whiteSpace=wrap;connectable=0;strokeColor=inherit;overflow=hidden;fillColor=none;top=0;left=0;bottom=0;right=0;pointerEvents=1;fontFamily=Times New Roman;fontSize=12;" parent="-wQCwCp9igqH3vH6jsLb-2" vertex="1">
          <mxGeometry x="1080" width="440" height="60" as="geometry">
            <mxRectangle width="440" height="60" as="alternateBounds" />
          </mxGeometry>
        </mxCell>
        <mxCell id="-wQCwCp9igqH3vH6jsLb-7" value="&lt;font style=&quot;font-size: 18px;&quot;&gt;[28]&lt;/font&gt;" style="shape=partialRectangle;html=1;whiteSpace=wrap;connectable=0;strokeColor=inherit;overflow=hidden;fillColor=none;top=0;left=0;bottom=0;right=0;pointerEvents=1;fontFamily=Times New Roman;fontSize=12;" parent="-wQCwCp9igqH3vH6jsLb-2" vertex="1">
          <mxGeometry x="1520" width="380" height="60" as="geometry">
            <mxRectangle width="380" height="60" as="alternateBounds" />
          </mxGeometry>
        </mxCell>
        <mxCell id="-wQCwCp9igqH3vH6jsLb-8" value="&lt;font style=&quot;font-size: 18px;&quot;&gt;[30]&lt;/font&gt;" style="shape=partialRectangle;html=1;whiteSpace=wrap;connectable=0;strokeColor=inherit;overflow=hidden;fillColor=none;top=0;left=0;bottom=0;right=0;pointerEvents=1;fontFamily=Times New Roman;fontSize=12;" parent="-wQCwCp9igqH3vH6jsLb-2" vertex="1">
          <mxGeometry x="1900" width="640" height="60" as="geometry">
            <mxRectangle width="640" height="60" as="alternateBounds" />
          </mxGeometry>
        </mxCell>
        <mxCell id="-wQCwCp9igqH3vH6jsLb-9" value="&lt;font style=&quot;font-size: 18px;&quot;&gt;Ours&lt;/font&gt;" style="shape=partialRectangle;html=1;whiteSpace=wrap;connectable=0;strokeColor=inherit;overflow=hidden;fillColor=none;top=0;left=0;bottom=0;right=0;pointerEvents=1;fontFamily=Times New Roman;fontSize=12;" parent="-wQCwCp9igqH3vH6jsLb-2" vertex="1">
          <mxGeometry x="2540" width="450" height="60" as="geometry">
            <mxRectangle width="450" height="60" as="alternateBounds" />
          </mxGeometry>
        </mxCell>
        <mxCell id="-wQCwCp9igqH3vH6jsLb-10" value="" style="shape=tableRow;horizontal=0;startSize=0;swimlaneHead=0;swimlaneBody=0;strokeColor=inherit;top=0;left=0;bottom=0;right=0;collapsible=0;dropTarget=0;fillColor=none;points=[[0,0.5],[1,0.5]];portConstraint=eastwest;fontFamily=Times New Roman;fontSize=12;" parent="-wQCwCp9igqH3vH6jsLb-1" vertex="1">
          <mxGeometry y="60" width="2990" height="50" as="geometry" />
        </mxCell>
        <mxCell id="-wQCwCp9igqH3vH6jsLb-11" value="&lt;font style=&quot;font-size: 18px;&quot;&gt;&lt;b&gt;Initialization&lt;/b&gt;&lt;/font&gt;" style="shape=partialRectangle;html=1;whiteSpace=wrap;connectable=0;strokeColor=#56517e;overflow=hidden;fillColor=#CC99FF;top=0;left=0;bottom=0;right=0;pointerEvents=1;fontFamily=Times New Roman;fontSize=12;gradientColor=#B266FF;shadow=1;" parent="-wQCwCp9igqH3vH6jsLb-10" vertex="1">
          <mxGeometry width="123" height="50" as="geometry">
            <mxRectangle width="123" height="50" as="alternateBounds" />
          </mxGeometry>
        </mxCell>
        <mxCell id="-wQCwCp9igqH3vH6jsLb-12" value="&lt;font style=&quot;font-size: 18px;&quot;&gt;$$T_{Che}+T_H$$&lt;/font&gt;" style="shape=partialRectangle;html=1;whiteSpace=wrap;connectable=0;strokeColor=inherit;overflow=hidden;fillColor=none;top=0;left=0;bottom=0;right=0;pointerEvents=1;fontFamily=Times New Roman;fontSize=12;" parent="-wQCwCp9igqH3vH6jsLb-10" vertex="1">
          <mxGeometry x="123" width="647" height="50" as="geometry">
            <mxRectangle width="647" height="50" as="alternateBounds" />
          </mxGeometry>
        </mxCell>
        <mxCell id="-wQCwCp9igqH3vH6jsLb-13" value="&lt;font style=&quot;font-size: 18px;&quot;&gt;$$T_{Che}$$&lt;/font&gt;" style="shape=partialRectangle;html=1;whiteSpace=wrap;connectable=0;strokeColor=inherit;overflow=hidden;fillColor=none;top=0;left=0;bottom=0;right=0;pointerEvents=1;fontFamily=Times New Roman;fontSize=12;" parent="-wQCwCp9igqH3vH6jsLb-10" vertex="1">
          <mxGeometry x="770" width="310" height="50" as="geometry">
            <mxRectangle width="310" height="50" as="alternateBounds" />
          </mxGeometry>
        </mxCell>
        <mxCell id="-wQCwCp9igqH3vH6jsLb-14" value="&lt;font style=&quot;font-size: 18px;&quot;&gt;$$2T_{Che}+2T_{H}$$&lt;/font&gt;" style="shape=partialRectangle;html=1;whiteSpace=wrap;connectable=0;strokeColor=inherit;overflow=hidden;fillColor=none;top=0;left=0;bottom=0;right=0;pointerEvents=1;fontFamily=Times New Roman;fontSize=12;" parent="-wQCwCp9igqH3vH6jsLb-10" vertex="1">
          <mxGeometry x="1080" width="440" height="50" as="geometry">
            <mxRectangle width="440" height="50" as="alternateBounds" />
          </mxGeometry>
        </mxCell>
        <mxCell id="-wQCwCp9igqH3vH6jsLb-15" value="&lt;span style=&quot;font-size: 18px;&quot;&gt;$$\bf{\times}$$&lt;/span&gt;" style="shape=partialRectangle;html=1;whiteSpace=wrap;connectable=0;strokeColor=inherit;overflow=hidden;fillColor=none;top=0;left=0;bottom=0;right=0;pointerEvents=1;fontFamily=Times New Roman;fontSize=12;" parent="-wQCwCp9igqH3vH6jsLb-10" vertex="1">
          <mxGeometry x="1520" width="380" height="50" as="geometry">
            <mxRectangle width="380" height="50" as="alternateBounds" />
          </mxGeometry>
        </mxCell>
        <mxCell id="-wQCwCp9igqH3vH6jsLb-16" value="&lt;font style=&quot;font-size: 18px;&quot;&gt;$$2T_{Mul-G_1}$$&lt;/font&gt;" style="shape=partialRectangle;html=1;whiteSpace=wrap;connectable=0;strokeColor=inherit;overflow=hidden;fillColor=none;top=0;left=0;bottom=0;right=0;pointerEvents=1;fontFamily=Times New Roman;fontSize=12;" parent="-wQCwCp9igqH3vH6jsLb-10" vertex="1">
          <mxGeometry x="1900" width="640" height="50" as="geometry">
            <mxRectangle width="640" height="50" as="alternateBounds" />
          </mxGeometry>
        </mxCell>
        <mxCell id="-wQCwCp9igqH3vH6jsLb-17" value="&lt;font style=&quot;font-size: 18px;&quot;&gt;$$T_{Che}$$&lt;/font&gt;" style="shape=partialRectangle;html=1;whiteSpace=wrap;connectable=0;strokeColor=inherit;overflow=hidden;fillColor=none;top=0;left=0;bottom=0;right=0;pointerEvents=1;fontFamily=Times New Roman;fontSize=12;" parent="-wQCwCp9igqH3vH6jsLb-10" vertex="1">
          <mxGeometry x="2540" width="450" height="50" as="geometry">
            <mxRectangle width="450" height="50" as="alternateBounds" />
          </mxGeometry>
        </mxCell>
        <mxCell id="-wQCwCp9igqH3vH6jsLb-18" value="" style="shape=tableRow;horizontal=0;startSize=0;swimlaneHead=0;swimlaneBody=0;strokeColor=inherit;top=0;left=0;bottom=0;right=0;collapsible=0;dropTarget=0;fillColor=none;points=[[0,0.5],[1,0.5]];portConstraint=eastwest;fontFamily=Times New Roman;fontSize=12;" parent="-wQCwCp9igqH3vH6jsLb-1" vertex="1">
          <mxGeometry y="110" width="2990" height="50" as="geometry" />
        </mxCell>
        <mxCell id="-wQCwCp9igqH3vH6jsLb-19" value="&lt;font style=&quot;font-size: 18px;&quot;&gt;&lt;b&gt;Registration&lt;/b&gt;&lt;/font&gt;" style="shape=partialRectangle;html=1;whiteSpace=wrap;connectable=0;strokeColor=#0e8088;overflow=hidden;fillColor=#b0e3e6;top=0;left=0;bottom=0;right=0;pointerEvents=1;fontFamily=Times New Roman;fontSize=12;align=center;verticalAlign=middle;shadow=1;gradientColor=#3399FF;fontColor=default;" parent="-wQCwCp9igqH3vH6jsLb-18" vertex="1">
          <mxGeometry width="123" height="50" as="geometry">
            <mxRectangle width="123" height="50" as="alternateBounds" />
          </mxGeometry>
        </mxCell>
        <mxCell id="-wQCwCp9igqH3vH6jsLb-20" value="&lt;font style=&quot;font-size: 18px;&quot;&gt;$$T_{MOD}$$&lt;/font&gt;" style="shape=partialRectangle;html=1;whiteSpace=wrap;connectable=0;strokeColor=inherit;overflow=hidden;fillColor=none;top=0;left=0;bottom=0;right=0;pointerEvents=1;fontFamily=Times New Roman;fontSize=12;" parent="-wQCwCp9igqH3vH6jsLb-18" vertex="1">
          <mxGeometry x="123" width="647" height="50" as="geometry">
            <mxRectangle width="647" height="50" as="alternateBounds" />
          </mxGeometry>
        </mxCell>
        <mxCell id="-wQCwCp9igqH3vH6jsLb-21" value="&lt;font style=&quot;font-size: 18px;&quot;&gt;$$5T_H+3T_{Che}+T_F$$&lt;/font&gt;" style="shape=partialRectangle;html=1;whiteSpace=wrap;connectable=0;strokeColor=inherit;overflow=hidden;fillColor=none;top=0;left=0;bottom=0;right=0;pointerEvents=1;fontFamily=Times New Roman;fontSize=12;" parent="-wQCwCp9igqH3vH6jsLb-18" vertex="1">
          <mxGeometry x="770" width="310" height="50" as="geometry">
            <mxRectangle width="310" height="50" as="alternateBounds" />
          </mxGeometry>
        </mxCell>
        <mxCell id="-wQCwCp9igqH3vH6jsLb-22" value="&lt;font style=&quot;font-size: 18px;&quot;&gt;$$3T_H+2T_{Che}$$&lt;/font&gt;" style="shape=partialRectangle;html=1;whiteSpace=wrap;connectable=0;strokeColor=inherit;overflow=hidden;fillColor=none;top=0;left=0;bottom=0;right=0;pointerEvents=1;fontFamily=Times New Roman;fontSize=12;" parent="-wQCwCp9igqH3vH6jsLb-18" vertex="1">
          <mxGeometry x="1080" width="440" height="50" as="geometry">
            <mxRectangle width="440" height="50" as="alternateBounds" />
          </mxGeometry>
        </mxCell>
        <mxCell id="-wQCwCp9igqH3vH6jsLb-23" value="&lt;font style=&quot;font-size: 18px;&quot;&gt;$$T_H+T_{PUF}+T_{LA}$$&lt;/font&gt;" style="shape=partialRectangle;html=1;whiteSpace=wrap;connectable=0;strokeColor=inherit;overflow=hidden;fillColor=none;top=0;left=0;bottom=0;right=0;pointerEvents=1;fontFamily=Times New Roman;fontSize=12;" parent="-wQCwCp9igqH3vH6jsLb-18" vertex="1">
          <mxGeometry x="1520" width="380" height="50" as="geometry">
            <mxRectangle width="380" height="50" as="alternateBounds" />
          </mxGeometry>
        </mxCell>
        <mxCell id="-wQCwCp9igqH3vH6jsLb-24" value="&lt;font style=&quot;font-size: 18px;&quot;&gt;$$6T_{Mul-G_1}+3T_H+T_{MTP}$$&lt;/font&gt;" style="shape=partialRectangle;html=1;whiteSpace=wrap;connectable=0;strokeColor=inherit;overflow=hidden;fillColor=none;top=0;left=0;bottom=0;right=0;pointerEvents=1;fontFamily=Times New Roman;fontSize=12;" parent="-wQCwCp9igqH3vH6jsLb-18" vertex="1">
          <mxGeometry x="1900" width="640" height="50" as="geometry">
            <mxRectangle width="640" height="50" as="alternateBounds" />
          </mxGeometry>
        </mxCell>
        <mxCell id="-wQCwCp9igqH3vH6jsLb-25" value="&lt;span style=&quot;font-size: 18px;&quot;&gt;$$5T_{Che}+4T_{PUF}+2T_{F}+7T_H$$&lt;/span&gt;" style="shape=partialRectangle;html=1;whiteSpace=wrap;connectable=0;strokeColor=inherit;overflow=hidden;fillColor=none;top=0;left=0;bottom=0;right=0;pointerEvents=1;fontFamily=Times New Roman;fontSize=12;" parent="-wQCwCp9igqH3vH6jsLb-18" vertex="1">
          <mxGeometry x="2540" width="450" height="50" as="geometry">
            <mxRectangle width="450" height="50" as="alternateBounds" />
          </mxGeometry>
        </mxCell>
        <mxCell id="-wQCwCp9igqH3vH6jsLb-26" value="" style="shape=tableRow;horizontal=0;startSize=0;swimlaneHead=0;swimlaneBody=0;strokeColor=inherit;top=0;left=0;bottom=0;right=0;collapsible=0;dropTarget=0;fillColor=none;points=[[0,0.5],[1,0.5]];portConstraint=eastwest;fontFamily=Times New Roman;fontSize=12;" parent="-wQCwCp9igqH3vH6jsLb-1" vertex="1">
          <mxGeometry y="160" width="2990" height="50" as="geometry" />
        </mxCell>
        <mxCell id="-wQCwCp9igqH3vH6jsLb-27" value="&lt;font style=&quot;font-size: 18px;&quot;&gt;&lt;b&gt;GAKA&lt;/b&gt;&lt;/font&gt;" style="shape=partialRectangle;html=1;whiteSpace=wrap;connectable=0;strokeColor=#82b366;overflow=hidden;fillColor=#d5e8d4;top=0;left=0;bottom=0;right=0;pointerEvents=1;fontFamily=Times New Roman;fontSize=12;gradientColor=#97d077;shadow=1;" parent="-wQCwCp9igqH3vH6jsLb-26" vertex="1">
          <mxGeometry width="123" height="50" as="geometry">
            <mxRectangle width="123" height="50" as="alternateBounds" />
          </mxGeometry>
        </mxCell>
        <mxCell id="-wQCwCp9igqH3vH6jsLb-28" value="&lt;font style=&quot;font-size: 18px;&quot;&gt;$$m(32T_{Che}+34T_H+8T_{AES-EN/DE})$$&lt;/font&gt;" style="shape=partialRectangle;html=1;whiteSpace=wrap;connectable=0;strokeColor=inherit;overflow=hidden;fillColor=none;top=0;left=0;bottom=0;right=0;pointerEvents=1;fontFamily=Times New Roman;fontSize=12;" parent="-wQCwCp9igqH3vH6jsLb-26" vertex="1">
          <mxGeometry x="123" width="647" height="50" as="geometry">
            <mxRectangle width="647" height="50" as="alternateBounds" />
          </mxGeometry>
        </mxCell>
        <mxCell id="-wQCwCp9igqH3vH6jsLb-29" value="&lt;font style=&quot;font-size: 18px;&quot;&gt;$$23mT_H+(2m+1)+22T_{Che}+mT_{F}$$&lt;/font&gt;" style="shape=partialRectangle;html=1;whiteSpace=wrap;connectable=0;strokeColor=inherit;overflow=hidden;fillColor=none;top=0;left=0;bottom=0;right=0;pointerEvents=1;fontFamily=Times New Roman;fontSize=12;" parent="-wQCwCp9igqH3vH6jsLb-26" vertex="1">
          <mxGeometry x="770" width="310" height="50" as="geometry">
            <mxRectangle width="310" height="50" as="alternateBounds" />
          </mxGeometry>
        </mxCell>
        <mxCell id="-wQCwCp9igqH3vH6jsLb-30" value="&lt;font style=&quot;font-size: 18px;&quot;&gt;$$(13m+5)T_H+7mT_{Che}+2mT_{Mul-Z_q^*}+mT_{AES-EN/DE}$$&lt;/font&gt;" style="shape=partialRectangle;html=1;whiteSpace=wrap;connectable=0;strokeColor=inherit;overflow=hidden;fillColor=none;top=0;left=0;bottom=0;right=0;pointerEvents=1;fontFamily=Times New Roman;fontSize=12;" parent="-wQCwCp9igqH3vH6jsLb-26" vertex="1">
          <mxGeometry x="1080" width="440" height="50" as="geometry">
            <mxRectangle width="440" height="50" as="alternateBounds" />
          </mxGeometry>
        </mxCell>
        <mxCell id="-wQCwCp9igqH3vH6jsLb-31" value="&lt;font style=&quot;font-size: 18px;&quot;&gt;$$(2w+4)T_H+mT_{Add-G_1}+2mT_{Mul-G_1}+2T_{LA}$$&lt;/font&gt;" style="shape=partialRectangle;html=1;whiteSpace=wrap;connectable=0;strokeColor=inherit;overflow=hidden;fillColor=none;top=0;left=0;bottom=0;right=0;pointerEvents=1;fontFamily=Times New Roman;fontSize=12;" parent="-wQCwCp9igqH3vH6jsLb-26" vertex="1">
          <mxGeometry x="1520" width="380" height="50" as="geometry">
            <mxRectangle width="380" height="50" as="alternateBounds" />
          </mxGeometry>
        </mxCell>
        <mxCell id="-wQCwCp9igqH3vH6jsLb-32" value="&lt;font style=&quot;font-size: 18px;&quot;&gt;$$(2m+1)T_{MTP}+(3m+1)T_{BP}+(m+3)T_{Mul-G_1}+(m-1)(T_{Add-G_1}+T_{Mul-G_2})$$&lt;/font&gt;" style="shape=partialRectangle;html=1;whiteSpace=wrap;connectable=0;strokeColor=inherit;overflow=hidden;fillColor=none;top=0;left=0;bottom=0;right=0;pointerEvents=1;fontFamily=Times New Roman;fontSize=12;" parent="-wQCwCp9igqH3vH6jsLb-26" vertex="1">
          <mxGeometry x="1900" width="640" height="50" as="geometry">
            <mxRectangle width="640" height="50" as="alternateBounds" />
          </mxGeometry>
        </mxCell>
        <mxCell id="-wQCwCp9igqH3vH6jsLb-33" value="&lt;font style=&quot;font-size: 18px;&quot;&gt;$$(5m+2)T_{Che}+2mT_{PUF}+2mT_{F}+(6m+3)T_H$$&lt;/font&gt;" style="shape=partialRectangle;html=1;whiteSpace=wrap;connectable=0;strokeColor=inherit;overflow=hidden;fillColor=none;top=0;left=0;bottom=0;right=0;pointerEvents=1;fontFamily=Times New Roman;fontSize=12;" parent="-wQCwCp9igqH3vH6jsLb-26" vertex="1">
          <mxGeometry x="2540" width="450" height="50" as="geometry">
            <mxRectangle width="450" height="50" as="alternateBounds" />
          </mxGeometry>
        </mxCell>
        <mxCell id="-wQCwCp9igqH3vH6jsLb-34" value="" style="shape=tableRow;horizontal=0;startSize=0;swimlaneHead=0;swimlaneBody=0;strokeColor=inherit;top=0;left=0;bottom=0;right=0;collapsible=0;dropTarget=0;fillColor=none;points=[[0,0.5],[1,0.5]];portConstraint=eastwest;fontFamily=Times New Roman;fontSize=12;" parent="-wQCwCp9igqH3vH6jsLb-1" vertex="1">
          <mxGeometry y="210" width="2990" height="50" as="geometry" />
        </mxCell>
        <mxCell id="-wQCwCp9igqH3vH6jsLb-35" value="&lt;font style=&quot;font-size: 18px;&quot;&gt;&lt;b&gt;Changeable thresholds&lt;/b&gt;&lt;/font&gt;" style="shape=partialRectangle;html=1;whiteSpace=wrap;connectable=0;strokeColor=#666666;overflow=hidden;fillColor=#f5f5f5;top=0;left=0;bottom=0;right=0;pointerEvents=1;fontFamily=Times New Roman;fontSize=12;gradientColor=#b3b3b3;shadow=1;" parent="-wQCwCp9igqH3vH6jsLb-34" vertex="1">
          <mxGeometry width="123" height="50" as="geometry">
            <mxRectangle width="123" height="50" as="alternateBounds" />
          </mxGeometry>
        </mxCell>
        <mxCell id="-wQCwCp9igqH3vH6jsLb-36" value="&lt;font style=&quot;font-size: 18px;&quot;&gt;$$T_H$$&lt;/font&gt;" style="shape=partialRectangle;html=1;whiteSpace=wrap;connectable=0;strokeColor=inherit;overflow=hidden;fillColor=none;top=0;left=0;bottom=0;right=0;pointerEvents=1;fontFamily=Times New Roman;fontSize=12;" parent="-wQCwCp9igqH3vH6jsLb-34" vertex="1">
          <mxGeometry x="123" width="647" height="50" as="geometry">
            <mxRectangle width="647" height="50" as="alternateBounds" />
          </mxGeometry>
        </mxCell>
        <mxCell id="-wQCwCp9igqH3vH6jsLb-37" value="&lt;font style=&quot;font-size: 18px;&quot;&gt;$$\bf{\times}$$&lt;/font&gt;" style="shape=partialRectangle;html=1;whiteSpace=wrap;connectable=0;strokeColor=inherit;overflow=hidden;fillColor=none;top=0;left=0;bottom=0;right=0;pointerEvents=1;fontFamily=Times New Roman;fontSize=12;" parent="-wQCwCp9igqH3vH6jsLb-34" vertex="1">
          <mxGeometry x="770" width="310" height="50" as="geometry">
            <mxRectangle width="310" height="50" as="alternateBounds" />
          </mxGeometry>
        </mxCell>
        <mxCell id="-wQCwCp9igqH3vH6jsLb-38" value="&lt;span style=&quot;font-size: 18px;&quot;&gt;$$\bf{\times}$$&lt;/span&gt;" style="shape=partialRectangle;html=1;whiteSpace=wrap;connectable=0;strokeColor=inherit;overflow=hidden;fillColor=none;top=0;left=0;bottom=0;right=0;pointerEvents=1;fontFamily=Times New Roman;fontSize=12;" parent="-wQCwCp9igqH3vH6jsLb-34" vertex="1">
          <mxGeometry x="1080" width="440" height="50" as="geometry">
            <mxRectangle width="440" height="50" as="alternateBounds" />
          </mxGeometry>
        </mxCell>
        <mxCell id="-wQCwCp9igqH3vH6jsLb-39" value="&lt;font style=&quot;font-size: 18px;&quot;&gt;$$(3l+lw+1)T_H+T_{LA}$$&lt;/font&gt;" style="shape=partialRectangle;html=1;whiteSpace=wrap;connectable=0;strokeColor=inherit;overflow=hidden;fillColor=none;top=0;left=0;bottom=0;right=0;pointerEvents=1;fontFamily=Times New Roman;fontSize=12;" parent="-wQCwCp9igqH3vH6jsLb-34" vertex="1">
          <mxGeometry x="1520" width="380" height="50" as="geometry">
            <mxRectangle width="380" height="50" as="alternateBounds" />
          </mxGeometry>
        </mxCell>
        <mxCell id="-wQCwCp9igqH3vH6jsLb-40" value="&lt;font style=&quot;font-size: 18px;&quot;&gt;$$l(T_{MOD}+lT_H)$$&lt;/font&gt;" style="shape=partialRectangle;html=1;whiteSpace=wrap;connectable=0;strokeColor=inherit;overflow=hidden;fillColor=none;top=0;left=0;bottom=0;right=0;pointerEvents=1;fontFamily=Times New Roman;fontSize=12;" parent="-wQCwCp9igqH3vH6jsLb-34" vertex="1">
          <mxGeometry x="1900" width="640" height="50" as="geometry">
            <mxRectangle width="640" height="50" as="alternateBounds" />
          </mxGeometry>
        </mxCell>
        <mxCell id="-wQCwCp9igqH3vH6jsLb-41" value="&lt;font style=&quot;font-size: 18px;&quot;&gt;$$lwT_H+T_{LA}$$&lt;/font&gt;" style="shape=partialRectangle;html=1;whiteSpace=wrap;connectable=0;strokeColor=inherit;overflow=hidden;fillColor=none;top=0;left=0;bottom=0;right=0;pointerEvents=1;fontFamily=Times New Roman;fontSize=12;" parent="-wQCwCp9igqH3vH6jsLb-34" vertex="1">
          <mxGeometry x="2540" width="450" height="50" as="geometry">
            <mxRectangle width="450" height="50" as="alternateBounds" />
          </mxGeometry>
        </mxCell>
        <mxCell id="-wQCwCp9igqH3vH6jsLb-42" value="" style="shape=tableRow;horizontal=0;startSize=0;swimlaneHead=0;swimlaneBody=0;strokeColor=inherit;top=0;left=0;bottom=0;right=0;collapsible=0;dropTarget=0;fillColor=none;points=[[0,0.5],[1,0.5]];portConstraint=eastwest;fontFamily=Times New Roman;fontSize=12;" parent="-wQCwCp9igqH3vH6jsLb-1" vertex="1">
          <mxGeometry y="260" width="2990" height="50" as="geometry" />
        </mxCell>
        <mxCell id="-wQCwCp9igqH3vH6jsLb-43" value="&lt;font style=&quot;font-size: 18px;&quot;&gt;&lt;b&gt;Verifiable shares&lt;/b&gt;&lt;/font&gt;" style="shape=partialRectangle;html=1;whiteSpace=wrap;connectable=0;strokeColor=#d6b656;overflow=hidden;fillColor=#fff2cc;top=0;left=0;bottom=0;right=0;pointerEvents=1;fontFamily=Times New Roman;fontSize=12;gradientColor=#ffd966;shadow=1;" parent="-wQCwCp9igqH3vH6jsLb-42" vertex="1">
          <mxGeometry width="123" height="50" as="geometry">
            <mxRectangle width="123" height="50" as="alternateBounds" />
          </mxGeometry>
        </mxCell>
        <mxCell id="-wQCwCp9igqH3vH6jsLb-44" value="&lt;font style=&quot;font-size: 18px;&quot;&gt;$$\bf{\times}$$&lt;/font&gt;" style="shape=partialRectangle;html=1;whiteSpace=wrap;connectable=0;strokeColor=inherit;overflow=hidden;fillColor=none;top=0;left=0;bottom=0;right=0;pointerEvents=1;fontFamily=Times New Roman;fontSize=12;" parent="-wQCwCp9igqH3vH6jsLb-42" vertex="1">
          <mxGeometry x="123" width="647" height="50" as="geometry">
            <mxRectangle width="647" height="50" as="alternateBounds" />
          </mxGeometry>
        </mxCell>
        <mxCell id="-wQCwCp9igqH3vH6jsLb-45" value="&lt;span style=&quot;font-size: 18px;&quot;&gt;$$\bf{\times}$$&lt;/span&gt;" style="shape=partialRectangle;html=1;whiteSpace=wrap;connectable=0;strokeColor=inherit;overflow=hidden;fillColor=none;top=0;left=0;bottom=0;right=0;pointerEvents=1;fontFamily=Times New Roman;fontSize=12;" parent="-wQCwCp9igqH3vH6jsLb-42" vertex="1">
          <mxGeometry x="770" width="310" height="50" as="geometry">
            <mxRectangle width="310" height="50" as="alternateBounds" />
          </mxGeometry>
        </mxCell>
        <mxCell id="-wQCwCp9igqH3vH6jsLb-46" value="&lt;span style=&quot;font-size: 18px;&quot;&gt;$$\bf{\times}$$&lt;/span&gt;" style="shape=partialRectangle;html=1;whiteSpace=wrap;connectable=0;strokeColor=inherit;overflow=hidden;fillColor=none;top=0;left=0;bottom=0;right=0;pointerEvents=1;fontFamily=Times New Roman;fontSize=12;" parent="-wQCwCp9igqH3vH6jsLb-42" vertex="1">
          <mxGeometry x="1080" width="440" height="50" as="geometry">
            <mxRectangle width="440" height="50" as="alternateBounds" />
          </mxGeometry>
        </mxCell>
        <mxCell id="-wQCwCp9igqH3vH6jsLb-47" value="&lt;span style=&quot;font-size: 18px;&quot;&gt;$$\bf{\times}$$&lt;/span&gt;" style="shape=partialRectangle;html=1;whiteSpace=wrap;connectable=0;strokeColor=inherit;overflow=hidden;fillColor=none;top=0;left=0;bottom=0;right=0;pointerEvents=1;fontFamily=Times New Roman;fontSize=12;" parent="-wQCwCp9igqH3vH6jsLb-42" vertex="1">
          <mxGeometry x="1520" width="380" height="50" as="geometry">
            <mxRectangle width="380" height="50" as="alternateBounds" />
          </mxGeometry>
        </mxCell>
        <mxCell id="-wQCwCp9igqH3vH6jsLb-48" value="&lt;font style=&quot;font-size: 18px;&quot;&gt;$$m(T_{BP}+tT_{EXP}+T_H+(t-1)T_{Mul-Z_q^*})$$&lt;/font&gt;" style="shape=partialRectangle;html=1;whiteSpace=wrap;connectable=0;strokeColor=inherit;overflow=hidden;fillColor=none;top=0;left=0;bottom=0;right=0;pointerEvents=1;fontFamily=Times New Roman;fontSize=12;" parent="-wQCwCp9igqH3vH6jsLb-42" vertex="1">
          <mxGeometry x="1900" width="640" height="50" as="geometry">
            <mxRectangle width="640" height="50" as="alternateBounds" />
          </mxGeometry>
        </mxCell>
        <mxCell id="-wQCwCp9igqH3vH6jsLb-49" value="&lt;font style=&quot;font-size: 18px;&quot;&gt;$$5mT_{EXP}+2mT_{AES-EN/DE}+mT_{LA}$$&lt;/font&gt;" style="shape=partialRectangle;html=1;whiteSpace=wrap;connectable=0;strokeColor=inherit;overflow=hidden;fillColor=none;top=0;left=0;bottom=0;right=0;pointerEvents=1;fontFamily=Times New Roman;fontSize=12;" parent="-wQCwCp9igqH3vH6jsLb-42" vertex="1">
          <mxGeometry x="2540" width="450" height="50" as="geometry">
            <mxRectangle width="450" height="50" as="alternateBounds" />
          </mxGeometry>
        </mxCell>
        <mxCell id="-wQCwCp9igqH3vH6jsLb-58" style="shape=tableRow;horizontal=0;startSize=0;swimlaneHead=0;swimlaneBody=0;strokeColor=inherit;top=0;left=0;bottom=0;right=0;collapsible=0;dropTarget=0;fillColor=none;points=[[0,0.5],[1,0.5]];portConstraint=eastwest;fontFamily=Times New Roman;fontSize=12;" parent="-wQCwCp9igqH3vH6jsLb-1" vertex="1">
          <mxGeometry y="310" width="2990" height="130" as="geometry" />
        </mxCell>
        <mxCell id="-wQCwCp9igqH3vH6jsLb-59" value="&lt;font style=&quot;font-size: 18px;&quot;&gt;&lt;b&gt;Secret recovery&lt;/b&gt;&lt;/font&gt;" style="shape=partialRectangle;html=1;whiteSpace=wrap;connectable=0;strokeColor=#b85450;overflow=hidden;fillColor=#f8cecc;top=0;left=0;bottom=0;right=0;pointerEvents=1;fontFamily=Times New Roman;fontSize=12;gradientColor=#ea6b66;shadow=1;" parent="-wQCwCp9igqH3vH6jsLb-58" vertex="1">
          <mxGeometry width="123" height="130" as="geometry">
            <mxRectangle width="123" height="130" as="alternateBounds" />
          </mxGeometry>
        </mxCell>
        <mxCell id="-wQCwCp9igqH3vH6jsLb-60" value="&lt;font style=&quot;font-size: 18px;&quot;&gt;\((4t+6)T_{Che}+(t+3)T_{AES-EN/DE}+(2t+3)T_H+t(T_{Mul-G_1}+T_{Add-G_1})+T_{MOD}\)&lt;/font&gt;" style="shape=partialRectangle;html=1;whiteSpace=wrap;connectable=0;strokeColor=inherit;overflow=hidden;fillColor=none;top=0;left=0;bottom=0;right=0;pointerEvents=1;fontFamily=Times New Roman;fontSize=12;" parent="-wQCwCp9igqH3vH6jsLb-58" vertex="1">
          <mxGeometry x="123" width="647" height="130" as="geometry">
            <mxRectangle width="647" height="130" as="alternateBounds" />
          </mxGeometry>
        </mxCell>
        <mxCell id="-wQCwCp9igqH3vH6jsLb-61" value="&lt;span style=&quot;font-size: 18px;&quot;&gt;$$\bf{\times}$$&lt;/span&gt;" style="shape=partialRectangle;html=1;whiteSpace=wrap;connectable=0;strokeColor=inherit;overflow=hidden;fillColor=none;top=0;left=0;bottom=0;right=0;pointerEvents=1;fontFamily=Times New Roman;fontSize=12;" parent="-wQCwCp9igqH3vH6jsLb-58" vertex="1">
          <mxGeometry x="770" width="310" height="130" as="geometry">
            <mxRectangle width="310" height="130" as="alternateBounds" />
          </mxGeometry>
        </mxCell>
        <mxCell id="-wQCwCp9igqH3vH6jsLb-62" value="&lt;span style=&quot;font-size: 18px;&quot;&gt;$$\bf{\times}$$&lt;/span&gt;" style="shape=partialRectangle;html=1;whiteSpace=wrap;connectable=0;strokeColor=inherit;overflow=hidden;fillColor=none;top=0;left=0;bottom=0;right=0;pointerEvents=1;fontFamily=Times New Roman;fontSize=12;" parent="-wQCwCp9igqH3vH6jsLb-58" vertex="1">
          <mxGeometry x="1080" width="440" height="130" as="geometry">
            <mxRectangle width="440" height="130" as="alternateBounds" />
          </mxGeometry>
        </mxCell>
        <mxCell id="-wQCwCp9igqH3vH6jsLb-63" value="&lt;font style=&quot;font-size: 18px;&quot;&gt;$$t(T_{LA}+T_{MOD})$$&lt;/font&gt;" style="shape=partialRectangle;html=1;whiteSpace=wrap;connectable=0;strokeColor=inherit;overflow=hidden;fillColor=none;top=0;left=0;bottom=0;right=0;pointerEvents=1;fontFamily=Times New Roman;fontSize=12;" parent="-wQCwCp9igqH3vH6jsLb-58" vertex="1">
          <mxGeometry x="1520" width="380" height="130" as="geometry">
            <mxRectangle width="380" height="130" as="alternateBounds" />
          </mxGeometry>
        </mxCell>
        <mxCell id="-wQCwCp9igqH3vH6jsLb-64" value="&lt;font style=&quot;font-size: 18px;&quot;&gt;$$t(T_{Add-G_1}+T_{Mul-G_1}+T_h)+T_{MOD}$$ or $$lT_{Add-G_1}+T_{MOD}+T_{Mul-G_1}$$&lt;/font&gt;" style="shape=partialRectangle;html=1;whiteSpace=wrap;connectable=0;strokeColor=inherit;overflow=hidden;fillColor=none;top=0;left=0;bottom=0;right=0;pointerEvents=1;fontFamily=Times New Roman;fontSize=12;" parent="-wQCwCp9igqH3vH6jsLb-58" vertex="1">
          <mxGeometry x="1900" width="640" height="130" as="geometry">
            <mxRectangle width="640" height="130" as="alternateBounds" />
          </mxGeometry>
        </mxCell>
        <mxCell id="-wQCwCp9igqH3vH6jsLb-65" value="&lt;font style=&quot;font-size: 18px;&quot;&gt;$$tT_{MOD}+tT_{LA}$$&lt;/font&gt;" style="shape=partialRectangle;html=1;whiteSpace=wrap;connectable=0;strokeColor=inherit;overflow=hidden;fillColor=none;top=0;left=0;bottom=0;right=0;pointerEvents=1;fontFamily=Times New Roman;fontSize=12;" parent="-wQCwCp9igqH3vH6jsLb-58" vertex="1">
          <mxGeometry x="2540" width="450" height="130" as="geometry">
            <mxRectangle width="450" height="130" as="alternateBounds" />
          </mxGeometry>
        </mxCell>
        <mxCell id="-wQCwCp9igqH3vH6jsLb-50" style="shape=tableRow;horizontal=0;startSize=0;swimlaneHead=0;swimlaneBody=0;strokeColor=inherit;top=0;left=0;bottom=0;right=0;collapsible=0;dropTarget=0;fillColor=none;points=[[0,0.5],[1,0.5]];portConstraint=eastwest;fontFamily=Times New Roman;fontSize=12;" parent="-wQCwCp9igqH3vH6jsLb-1" vertex="1">
          <mxGeometry y="440" width="2990" height="50" as="geometry" />
        </mxCell>
        <mxCell id="-wQCwCp9igqH3vH6jsLb-51" value="&lt;font style=&quot;font-size: 18px;&quot;&gt;&lt;b&gt;Key update&lt;/b&gt;&lt;/font&gt;" style="shape=partialRectangle;html=1;whiteSpace=wrap;connectable=0;strokeColor=#996185;overflow=hidden;fillColor=#e6d0de;top=0;left=0;bottom=0;right=0;pointerEvents=1;fontFamily=Times New Roman;fontSize=12;gradientColor=#d5739d;shadow=1;" parent="-wQCwCp9igqH3vH6jsLb-50" vertex="1">
          <mxGeometry width="123" height="50" as="geometry">
            <mxRectangle width="123" height="50" as="alternateBounds" />
          </mxGeometry>
        </mxCell>
        <mxCell id="-wQCwCp9igqH3vH6jsLb-52" value="&lt;font style=&quot;font-size: 18px;&quot;&gt;$$(2m+2)(16T_{Che}+17T_H+4T_{AES-EN/DE})+(m+1)(T_{Mul-G_1}+T_{Add-G_1})+T_{MOD}$$&lt;/font&gt;" style="shape=partialRectangle;html=1;whiteSpace=wrap;connectable=0;strokeColor=inherit;overflow=hidden;fillColor=none;top=0;left=0;bottom=0;right=0;pointerEvents=1;fontFamily=Times New Roman;fontSize=12;" parent="-wQCwCp9igqH3vH6jsLb-50" vertex="1">
          <mxGeometry x="123" width="647" height="50" as="geometry">
            <mxRectangle width="647" height="50" as="alternateBounds" />
          </mxGeometry>
        </mxCell>
        <mxCell id="-wQCwCp9igqH3vH6jsLb-53" value="&lt;span style=&quot;font-size: 18px;&quot;&gt;$$\bf{\times}$$&lt;/span&gt;" style="shape=partialRectangle;html=1;whiteSpace=wrap;connectable=0;strokeColor=inherit;overflow=hidden;fillColor=none;top=0;left=0;bottom=0;right=0;pointerEvents=1;fontFamily=Times New Roman;fontSize=12;" parent="-wQCwCp9igqH3vH6jsLb-50" vertex="1">
          <mxGeometry x="770" width="310" height="50" as="geometry">
            <mxRectangle width="310" height="50" as="alternateBounds" />
          </mxGeometry>
        </mxCell>
        <mxCell id="-wQCwCp9igqH3vH6jsLb-54" value="&lt;span style=&quot;font-size: 18px;&quot;&gt;$$\bf{\times}$$&lt;/span&gt;" style="shape=partialRectangle;html=1;whiteSpace=wrap;connectable=0;strokeColor=inherit;overflow=hidden;fillColor=none;top=0;left=0;bottom=0;right=0;pointerEvents=1;fontFamily=Times New Roman;fontSize=12;" parent="-wQCwCp9igqH3vH6jsLb-50" vertex="1">
          <mxGeometry x="1080" width="440" height="50" as="geometry">
            <mxRectangle width="440" height="50" as="alternateBounds" />
          </mxGeometry>
        </mxCell>
        <mxCell id="-wQCwCp9igqH3vH6jsLb-55" value="&lt;span style=&quot;font-size: 18px;&quot;&gt;$$\bf{\times}$$&lt;/span&gt;" style="shape=partialRectangle;html=1;whiteSpace=wrap;connectable=0;strokeColor=inherit;overflow=hidden;fillColor=none;top=0;left=0;bottom=0;right=0;pointerEvents=1;fontFamily=Times New Roman;fontSize=12;" parent="-wQCwCp9igqH3vH6jsLb-50" vertex="1">
          <mxGeometry x="1520" width="380" height="50" as="geometry">
            <mxRectangle width="380" height="50" as="alternateBounds" />
          </mxGeometry>
        </mxCell>
        <mxCell id="-wQCwCp9igqH3vH6jsLb-56" value="&lt;font style=&quot;font-size: 18px;&quot;&gt;$$(3m+4)T_{BP}+m(T_{Add-G_1}+T_{Mul-G_2})+(2m+3)T_{MTP}+(m+4)T_{Mul-G_1}$$&lt;/font&gt;" style="shape=partialRectangle;html=1;whiteSpace=wrap;connectable=0;strokeColor=inherit;overflow=hidden;fillColor=none;top=0;left=0;bottom=0;right=0;pointerEvents=1;fontFamily=Times New Roman;fontSize=12;" parent="-wQCwCp9igqH3vH6jsLb-50" vertex="1">
          <mxGeometry x="1900" width="640" height="50" as="geometry">
            <mxRectangle width="640" height="50" as="alternateBounds" />
          </mxGeometry>
        </mxCell>
        <mxCell id="-wQCwCp9igqH3vH6jsLb-57" value="&lt;font style=&quot;font-size: 18px;&quot;&gt;$$(m+1)T_{Che}+7mT_{EXP}+3mT_{AES-EN/DE}+mT_{LA}+T_H$$&lt;/font&gt;" style="shape=partialRectangle;html=1;whiteSpace=wrap;connectable=0;strokeColor=inherit;overflow=hidden;fillColor=none;top=0;left=0;bottom=0;right=0;pointerEvents=1;fontFamily=Times New Roman;fontSize=12;" parent="-wQCwCp9igqH3vH6jsLb-50" vertex="1">
          <mxGeometry x="2540" width="450" height="50" as="geometry">
            <mxRectangle width="450" height="50" as="alternateBounds" />
          </mxGeometry>
        </mxCell>
        <mxCell id="8BKUC2PaG8vLhlCfdQco-1" value="&lt;font style=&quot;font-size: 18px;&quot; face=&quot;Times New Roman&quot;&gt;Table.&amp;nbsp;COMPARISON OF COMPUTING COSTS.&lt;/font&gt;" style="rounded=0;whiteSpace=wrap;html=1;fillColor=none;strokeColor=none;" parent="1" vertex="1">
          <mxGeometry x="1190" y="60" width="670" height="50" as="geometry" />
        </mxCell>
        <mxCell id="-Dbgmp5mLfgTxS0Gpn_x-4" value="" style="group;fillColor=#d0cee2;strokeColor=#56517e;" vertex="1" connectable="0" parent="1">
          <mxGeometry x="-40" y="640" width="1000" height="200" as="geometry" />
        </mxCell>
        <mxCell id="-Dbgmp5mLfgTxS0Gpn_x-2" value="&lt;span style=&quot;text-align: start;&quot;&gt;&lt;font style=&quot;font-size: 18px; color: rgb(255, 255, 255);&quot; face=&quot;Times New Roman&quot;&gt;&lt;b style=&quot;&quot;&gt;Annotation&lt;/b&gt;&lt;/font&gt;&lt;/span&gt;" style="rounded=0;whiteSpace=wrap;html=1;fillColor=#FF3333;strokeWidth=2;strokeColor=#FF0000;gradientColor=none;" vertex="1" parent="-Dbgmp5mLfgTxS0Gpn_x-4">
          <mxGeometry width="1000" height="23.076923076923077" as="geometry" />
        </mxCell>
        <mxCell id="-Dbgmp5mLfgTxS0Gpn_x-3" value="&lt;font face=&quot;Times New Roman&quot; style=&quot;font-size: 18px; color: rgb(0, 0, 0);&quot;&gt;&lt;b style=&quot;&quot;&gt;The definitions of each parameter included in this table are provided as follows:&lt;/b&gt;&lt;/font&gt;&lt;div&gt;&lt;ul&gt;&lt;li style=&quot;text-align: left;&quot;&gt;&lt;font face=&quot;Times New Roman&quot; style=&quot;color: rgb(0, 0, 0);&quot;&gt;&lt;span style=&quot;font-size: 18px;&quot;&gt;&lt;b&gt;\(m\):&amp;nbsp;It carries distinct meanings across different stages. During the GAKA stage, it refers to the total number of all group members, while in the Key update stage, it denotes the total number of newly joined members within the group.&lt;/b&gt;&lt;/span&gt;&lt;/font&gt;&lt;/li&gt;&lt;li style=&quot;text-align: left;&quot;&gt;&lt;font face=&quot;Times New Roman&quot; style=&quot;color: rgb(0, 0, 0);&quot;&gt;&lt;span style=&quot;font-size: 18px;&quot;&gt;&lt;b&gt;\(t\):&amp;nbsp;The minimum number of group members required to reconstruct the group key.&lt;/b&gt;&lt;/span&gt;&lt;/font&gt;&lt;/li&gt;&lt;li style=&quot;text-align: left;&quot;&gt;&lt;font face=&quot;Times New Roman&quot; style=&quot;color: rgb(0, 0, 0);&quot;&gt;&lt;span style=&quot;font-size: 18px;&quot;&gt;&lt;b&gt;\(l\):&amp;nbsp;Updated threshold.&lt;/b&gt;&lt;/span&gt;&lt;/font&gt;&lt;/li&gt;&lt;li style=&quot;text-align: left;&quot;&gt;&lt;font face=&quot;Times New Roman&quot; style=&quot;color: rgb(0, 0, 0);&quot;&gt;&lt;span style=&quot;font-size: 18px;&quot;&gt;&lt;b&gt;\(w\):&amp;nbsp;Iterations of threshold adjustment.&lt;/b&gt;&lt;/span&gt;&lt;/font&gt;&lt;/li&gt;&lt;li style=&quot;text-align: left;&quot;&gt;&lt;b style=&quot;&quot;&gt;&lt;font face=&quot;Times New Roman&quot;&gt;&lt;font style=&quot;color: rgb(0, 0, 0);&quot;&gt;&lt;span style=&quot;font-size: 18px;&quot;&gt;\(\times\):&amp;nbsp;&lt;/span&gt;&lt;/font&gt;&lt;span style=&quot;font-size: 18px;&quot;&gt;This symbol indicates that the scheme does not involve this feature.&lt;/span&gt;&lt;/font&gt;&lt;/b&gt;&lt;/li&gt;&lt;/ul&gt;&lt;/div&gt;" style="rounded=0;whiteSpace=wrap;html=1;strokeWidth=2;align=center;fillColor=#CCFFCC;strokeColor=#36393d;gradientColor=#FFCCE6;" vertex="1" parent="-Dbgmp5mLfgTxS0Gpn_x-4">
          <mxGeometry y="23.076923076923077" width="1000" height="176.9230769230769" as="geometry" />
        </mxCell>
        <mxCell id="-Dbgmp5mLfgTxS0Gpn_x-5" value="&lt;font style=&quot;font-size: 18px;&quot;&gt;&lt;b&gt;Scheme&lt;/b&gt;&lt;/font&gt;" style="shape=partialRectangle;html=1;whiteSpace=wrap;connectable=0;strokeColor=#6c8ebf;overflow=hidden;fillColor=#dae8fc;top=0;left=0;bottom=0;right=0;pointerEvents=1;fontFamily=Times New Roman;fontSize=12;gradientColor=#7ea6e0;shadow=1;strokeWidth=2;" vertex="1" parent="1">
          <mxGeometry x="2950" y="120" width="130" height="60" as="geometry">
            <mxRectangle width="123" height="60" as="alternateBounds" />
          </mxGeometry>
        </mxCell>
        <mxCell id="-Dbgmp5mLfgTxS0Gpn_x-6" value="&lt;font style=&quot;font-size: 18px;&quot;&gt;&lt;b&gt;Initialization&lt;/b&gt;&lt;/font&gt;" style="shape=partialRectangle;html=1;whiteSpace=wrap;connectable=0;strokeColor=#56517e;overflow=hidden;fillColor=#CC99FF;top=0;left=0;bottom=0;right=0;pointerEvents=1;fontFamily=Times New Roman;fontSize=12;gradientColor=#B266FF;shadow=1;" vertex="1" parent="1">
          <mxGeometry x="2950" y="180" width="130" height="50" as="geometry">
            <mxRectangle width="123" height="50" as="alternateBounds" />
          </mxGeometry>
        </mxCell>
        <mxCell id="-Dbgmp5mLfgTxS0Gpn_x-7" value="&lt;font style=&quot;font-size: 18px;&quot;&gt;&lt;b&gt;Registration&lt;/b&gt;&lt;/font&gt;" style="shape=partialRectangle;html=1;whiteSpace=wrap;connectable=0;strokeColor=#0e8088;overflow=hidden;fillColor=#b0e3e6;top=0;left=0;bottom=0;right=0;pointerEvents=1;fontFamily=Times New Roman;fontSize=12;align=center;verticalAlign=middle;gradientColor=#3399FF;shadow=1;" vertex="1" parent="1">
          <mxGeometry x="2950" y="230" width="130" height="50" as="geometry">
            <mxRectangle width="123" height="50" as="alternateBounds" />
          </mxGeometry>
        </mxCell>
        <mxCell id="-Dbgmp5mLfgTxS0Gpn_x-8" value="&lt;font style=&quot;font-size: 18px;&quot;&gt;&lt;b&gt;GAKA&lt;/b&gt;&lt;/font&gt;" style="shape=partialRectangle;html=1;whiteSpace=wrap;connectable=0;strokeColor=#82b366;overflow=hidden;fillColor=#d5e8d4;top=0;left=0;bottom=0;right=0;pointerEvents=1;fontFamily=Times New Roman;fontSize=12;gradientColor=#97d077;shadow=1;strokeWidth=1;" vertex="1" parent="1">
          <mxGeometry x="2950" y="280" width="130" height="50" as="geometry">
            <mxRectangle width="123" height="50" as="alternateBounds" />
          </mxGeometry>
        </mxCell>
        <mxCell id="-Dbgmp5mLfgTxS0Gpn_x-17" value="&lt;font style=&quot;font-size: 18px;&quot;&gt;&lt;b&gt;Changeable thresholds&lt;/b&gt;&lt;/font&gt;" style="shape=partialRectangle;html=1;whiteSpace=wrap;connectable=0;strokeColor=#666666;overflow=hidden;fillColor=#f5f5f5;top=0;left=0;bottom=0;right=0;pointerEvents=1;fontFamily=Times New Roman;fontSize=12;gradientColor=#b3b3b3;shadow=1;" vertex="1" parent="1">
          <mxGeometry x="2950" y="330" width="130" height="50" as="geometry">
            <mxRectangle width="123" height="50" as="alternateBounds" />
          </mxGeometry>
        </mxCell>
        <mxCell id="-Dbgmp5mLfgTxS0Gpn_x-18" value="&lt;font style=&quot;font-size: 18px;&quot;&gt;&lt;b&gt;Verifiable shares&lt;/b&gt;&lt;/font&gt;" style="shape=partialRectangle;html=1;whiteSpace=wrap;connectable=0;strokeColor=#d6b656;overflow=hidden;fillColor=#fff2cc;top=0;left=0;bottom=0;right=0;pointerEvents=1;fontFamily=Times New Roman;fontSize=12;gradientColor=#ffd966;shadow=1;" vertex="1" parent="1">
          <mxGeometry x="2950" y="380" width="130" height="50" as="geometry">
            <mxRectangle width="123" height="50" as="alternateBounds" />
          </mxGeometry>
        </mxCell>
        <mxCell id="-Dbgmp5mLfgTxS0Gpn_x-19" value="&lt;font style=&quot;font-size: 18px;&quot;&gt;&lt;b&gt;Secret recovery&lt;/b&gt;&lt;/font&gt;" style="shape=partialRectangle;html=1;whiteSpace=wrap;connectable=0;strokeColor=#b85450;overflow=hidden;fillColor=#f8cecc;top=0;left=0;bottom=0;right=0;pointerEvents=1;fontFamily=Times New Roman;fontSize=12;gradientColor=#ea6b66;shadow=1;" vertex="1" parent="1">
          <mxGeometry x="2950" y="430" width="130" height="130" as="geometry">
            <mxRectangle width="123" height="130" as="alternateBounds" />
          </mxGeometry>
        </mxCell>
        <mxCell id="-Dbgmp5mLfgTxS0Gpn_x-20" value="&lt;font style=&quot;font-size: 18px;&quot;&gt;&lt;b&gt;Key update&lt;/b&gt;&lt;/font&gt;" style="shape=partialRectangle;html=1;whiteSpace=wrap;connectable=0;strokeColor=#996185;overflow=hidden;fillColor=#e6d0de;top=0;left=0;bottom=0;right=0;pointerEvents=1;fontFamily=Times New Roman;fontSize=12;gradientColor=#d5739d;shadow=1;" vertex="1" parent="1">
          <mxGeometry x="2950" y="560" width="130" height="50" as="geometry">
            <mxRectangle width="123" height="50" as="alternateBounds" />
          </mxGeometry>
        </mxCell>
      </root>
    </mxGraphModel>
  </diagram>
</mxfile>
